<mxfile host="app.diagrams.net" agent="Mozilla/5.0 (Windows NT 10.0; Win64; x64) AppleWebKit/537.36 (KHTML, like Gecko) Chrome/127.0.0.0 Safari/537.36" version="24.7.6">
  <diagram name="Page-1" id="tIyJOI4_v6JFVtXhxtpv">
    <mxGraphModel dx="794" dy="454" grid="1" gridSize="10" guides="1" tooltips="1" connect="1" arrows="1" fold="1" page="1" pageScale="1" pageWidth="850" pageHeight="1100" math="0" shadow="0">
      <root>
        <mxCell id="0" />
        <mxCell id="1" parent="0" />
        <mxCell id="1Wgs37q9AcSInS37OjTD-1" value="" style="rounded=0;whiteSpace=wrap;html=1;" vertex="1" parent="1">
          <mxGeometry x="230" y="160" width="200" height="400" as="geometry" />
        </mxCell>
        <mxCell id="1Wgs37q9AcSInS37OjTD-2" value="" style="endArrow=none;html=1;rounded=0;" edge="1" parent="1">
          <mxGeometry width="50" height="50" relative="1" as="geometry">
            <mxPoint x="110" y="360" as="sourcePoint" />
            <mxPoint x="230" y="360" as="targetPoint" />
          </mxGeometry>
        </mxCell>
        <mxCell id="1Wgs37q9AcSInS37OjTD-3" value="" style="endArrow=none;html=1;rounded=0;" edge="1" parent="1">
          <mxGeometry width="50" height="50" relative="1" as="geometry">
            <mxPoint x="430" y="239" as="sourcePoint" />
            <mxPoint x="550" y="239" as="targetPoint" />
          </mxGeometry>
        </mxCell>
        <mxCell id="1Wgs37q9AcSInS37OjTD-4" value="" style="endArrow=none;html=1;rounded=0;" edge="1" parent="1">
          <mxGeometry width="50" height="50" relative="1" as="geometry">
            <mxPoint x="430" y="400" as="sourcePoint" />
            <mxPoint x="550" y="400" as="targetPoint" />
          </mxGeometry>
        </mxCell>
        <mxCell id="1Wgs37q9AcSInS37OjTD-5" value="" style="endArrow=none;html=1;rounded=0;" edge="1" parent="1">
          <mxGeometry width="50" height="50" relative="1" as="geometry">
            <mxPoint x="430" y="480" as="sourcePoint" />
            <mxPoint x="550" y="480" as="targetPoint" />
          </mxGeometry>
        </mxCell>
        <mxCell id="1Wgs37q9AcSInS37OjTD-6" value="" style="endArrow=none;html=1;rounded=0;" edge="1" parent="1">
          <mxGeometry width="50" height="50" relative="1" as="geometry">
            <mxPoint x="430" y="320" as="sourcePoint" />
            <mxPoint x="550" y="320" as="targetPoint" />
          </mxGeometry>
        </mxCell>
        <mxCell id="1Wgs37q9AcSInS37OjTD-8" value="&lt;font style=&quot;font-size: 29px;&quot;&gt;DECODER&lt;/font&gt;" style="text;html=1;align=center;verticalAlign=middle;resizable=0;points=[];autosize=1;strokeColor=none;fillColor=none;fontStyle=1" vertex="1" parent="1">
          <mxGeometry x="245" y="170" width="170" height="50" as="geometry" />
        </mxCell>
        <mxCell id="1Wgs37q9AcSInS37OjTD-9" value="" style="ellipse;whiteSpace=wrap;html=1;aspect=fixed;fillColor=#000000;" vertex="1" parent="1">
          <mxGeometry x="235" y="260" width="5" height="5" as="geometry" />
        </mxCell>
        <mxCell id="1Wgs37q9AcSInS37OjTD-10" value="" style="ellipse;whiteSpace=wrap;html=1;aspect=fixed;fillColor=#000000;" vertex="1" parent="1">
          <mxGeometry x="235" y="390" width="5" height="5" as="geometry" />
        </mxCell>
        <mxCell id="1Wgs37q9AcSInS37OjTD-11" value="" style="ellipse;whiteSpace=wrap;html=1;aspect=fixed;fillColor=#000000;" vertex="1" parent="1">
          <mxGeometry x="235" y="490" width="5" height="5" as="geometry" />
        </mxCell>
        <mxCell id="1Wgs37q9AcSInS37OjTD-12" value="FUNC3" style="text;html=1;align=center;verticalAlign=middle;resizable=0;points=[];autosize=1;strokeColor=none;fillColor=none;" vertex="1" parent="1">
          <mxGeometry x="245" y="377.5" width="60" height="30" as="geometry" />
        </mxCell>
        <mxCell id="1Wgs37q9AcSInS37OjTD-13" value="FUNCT7" style="text;html=1;align=center;verticalAlign=middle;resizable=0;points=[];autosize=1;strokeColor=none;fillColor=none;" vertex="1" parent="1">
          <mxGeometry x="245" y="477.5" width="70" height="30" as="geometry" />
        </mxCell>
        <mxCell id="1Wgs37q9AcSInS37OjTD-14" value="&lt;div&gt;OPCODE&lt;/div&gt;" style="text;html=1;align=center;verticalAlign=middle;resizable=0;points=[];autosize=1;strokeColor=none;fillColor=none;" vertex="1" parent="1">
          <mxGeometry x="235" y="247.5" width="80" height="30" as="geometry" />
        </mxCell>
        <mxCell id="1Wgs37q9AcSInS37OjTD-15" value="&lt;font style=&quot;font-weight: normal; font-size: 20px;&quot;&gt;INSTRUCTION&lt;/font&gt;" style="text;html=1;align=center;verticalAlign=middle;resizable=0;points=[];autosize=1;strokeColor=none;fillColor=none;fontStyle=1" vertex="1" parent="1">
          <mxGeometry x="70" y="320" width="160" height="40" as="geometry" />
        </mxCell>
        <mxCell id="1Wgs37q9AcSInS37OjTD-17" value="&lt;font style=&quot;font-weight: normal; font-size: 20px;&quot;&gt;RS1&lt;/font&gt;" style="text;html=1;align=center;verticalAlign=middle;resizable=0;points=[];autosize=1;strokeColor=none;fillColor=none;fontStyle=1" vertex="1" parent="1">
          <mxGeometry x="490" y="277.5" width="60" height="40" as="geometry" />
        </mxCell>
        <mxCell id="1Wgs37q9AcSInS37OjTD-18" value="&lt;font style=&quot;font-weight: normal; font-size: 20px;&quot;&gt;RS2&lt;/font&gt;" style="text;html=1;align=center;verticalAlign=middle;resizable=0;points=[];autosize=1;strokeColor=none;fillColor=none;fontStyle=1" vertex="1" parent="1">
          <mxGeometry x="490" y="360" width="60" height="40" as="geometry" />
        </mxCell>
        <mxCell id="1Wgs37q9AcSInS37OjTD-19" value="&lt;font style=&quot;font-weight: normal; font-size: 20px;&quot;&gt;RD&lt;/font&gt;" style="text;html=1;align=center;verticalAlign=middle;resizable=0;points=[];autosize=1;strokeColor=none;fillColor=none;fontStyle=1" vertex="1" parent="1">
          <mxGeometry x="490" y="437.5" width="50" height="40" as="geometry" />
        </mxCell>
        <mxCell id="1Wgs37q9AcSInS37OjTD-21" value="&lt;font style=&quot;font-weight: normal; font-size: 20px;&quot;&gt;IMM&lt;/font&gt;" style="text;html=1;align=center;verticalAlign=middle;resizable=0;points=[];autosize=1;strokeColor=none;fillColor=none;fontStyle=1" vertex="1" parent="1">
          <mxGeometry x="490" y="200" width="60" height="40" as="geometry" />
        </mxCell>
      </root>
    </mxGraphModel>
  </diagram>
</mxfile>
